<?xml version="1.0" encoding="UTF-8"?>
<svg id="a" data-name="Layer 1" xmlns="http://www.w3.org/2000/svg" viewBox="0 0 150 150">
  <defs>
    <style>
      .b {
        stroke-width: 12px;
     
      }

      .b, .c, .d {
        fill: none;
      }

      .b, .c, .d, .e {
        stroke: #000;
        stroke-miterlimit: 10;
      }

      .c, .e {
        stroke-width: 9px;
      }

      .d {
        stroke-width: 10px;
        fill: #000;
      }

      .d, .e {
        stroke-linecap: round;
      }

      .e {
        fill: none;
      }
    </style>
  </defs>
  <path class="b" d="M25.01198,121.62598c15.11471,15.11471,33.34329,21.62602,41.82393,15.26138l60.0672-59.90316c7.90448-7.90448,1.49662-27.12805-14.31234-42.93701-15.80899-15.80899-35.03257-22.21685-42.93705-14.31237L9.75057,79.80201c-6.36465,8.48064.14666,26.70921,15.26141,41.82396Z"/>
  <path class="e" d="M72.05604,69.76292C47.30212,45.00899,31.20825,23.18943,43.58521,10.81247s38.03741,4.69498,62.79134,29.44891"/>
  <ellipse class="c" cx="98.27841" cy="48.35951" rx="20.24071" ry="40.48142" transform="translate(-5.41026 83.65751) rotate(-45)"/>
  <path class="d" d="M83.29074,57.06832s17.65973-22.73203,45.35627,1.66227,7.72307,25.63308,9.56561,58.98793c1.89555,34.31439-52.00767,29.31364-15.74523-39.74704"/>
</svg>